<svg width="1440" height="280" viewBox="0 0 1440 280" fill="none" xmlns="http://www.w3.org/2000/svg">
<g clip-path="url(#clip0_32_2)">
<path fill-rule="evenodd" clip-rule="evenodd" d="M1440 0H0V280H1440V0ZM210.247 108.507L210.279 108.563C235.872 64.2384 269.704 32.3804 298.116 22.5299C302.939 20.1831 308.329 19.1578 314.132 19.3448C319.937 19.1568 325.331 20.1825 330.157 22.5311C356.958 31.8244 388.582 60.7006 413.563 101.151C442.471 54.3432 480.273 23.0337 509.205 19.6314C510.819 19.4209 512.474 19.3192 514.166 19.3233C515.889 19.3165 517.574 19.4195 519.217 19.635C549.649 23.233 589.884 57.6894 619.261 108.573C656.411 172.917 662.13 239.165 632.036 256.54C602.983 273.313 551.172 238.406 514.196 178.076C487.397 221.801 452.807 252.172 424.734 259.192C421.236 260.296 417.494 260.8 413.558 260.737C409.627 260.799 405.891 260.296 402.398 259.193C374.743 252.28 340.761 222.704 314.135 180.023C282.105 231.365 239.431 263.744 209.932 260.522C178.847 263.346 133.514 227.284 101.265 171.427C64.1156 107.082 58.3963 40.8354 88.4907 23.4604C118.585 6.08542 173.097 44.162 210.247 108.507Z" fill="#002472"/>
<path d="M167.719 130.438V133.312H156.469V142.781H153.031V133.312H141.906V130.438H167.719ZM144.625 121.875C144.609 118 148.734 115.547 154.75 115.531C160.766 115.547 164.922 118 164.938 121.875C164.922 125.703 160.766 128.141 154.75 128.125C148.734 128.141 144.609 125.703 144.625 121.875ZM148.188 121.875C148.172 124.078 150.766 125.375 154.75 125.375C158.75 125.375 161.344 124.078 161.344 121.875C161.344 119.656 158.75 118.344 154.75 118.344C150.766 118.344 148.172 119.656 148.188 121.875ZM193.125 114.531V142.812H189.688V114.531H193.125ZM171.125 119.812V117H184.438V127.594H174.719V133.281C179.172 133.25 183 133.016 187.406 132.281L187.719 135.125C182.922 135.953 178.703 136.141 173.625 136.125H171.156V124.844H180.906V119.812H171.125ZM223.031 125.844V128.594H197.25V125.844H223.031ZM200.281 133.156V130.531H219.781V137.625H203.719V139.781H220.562V142.5H200.312V135.125H216.375V133.156H200.281ZM200.531 124.031V115.25H219.719V118.031H204V121.281H219.969V124.031H200.531ZM234.062 116.5C238.547 116.484 241.812 119.312 241.844 123.312C241.812 127.328 238.547 130.141 234.062 130.156C229.625 130.141 226.297 127.328 226.312 123.312C226.297 119.312 229.625 116.484 234.062 116.5ZM225.031 134.062C230.125 134.062 237.172 134 243.281 133.125L243.562 135.656C237.234 136.859 230.453 136.906 225.469 136.906L225.031 134.062ZM229.75 123.312C229.734 125.672 231.594 127.125 234.062 127.125C236.562 127.125 238.422 125.672 238.438 123.312C238.422 120.969 236.578 119.5 234.062 119.5C231.594 119.5 229.734 120.969 229.75 123.312ZM244.969 142.812V114.531H248.438V142.812H244.969ZM282.781 115.656V117.562C282.766 119.516 282.766 122.062 282.156 125.375H285.969V128.188H274.688V132.188H271.25V128.188H260.156V125.375H278.688C279.25 122.453 279.328 120.25 279.344 118.438H263.344V115.656H282.781ZM261.938 140C267.656 139.375 271.172 136.75 271.188 134.094V133.25H274.719V134.094C274.734 136.891 278.188 139.375 284 140L282.812 142.656C278.125 142.109 274.625 140.391 272.938 137.844C271.219 140.328 267.734 142.125 263.156 142.656L261.938 140ZM313.625 136.375V139.25H287.812V136.375H313.625ZM288.938 129.219C294.641 128.328 298.859 124.453 298.844 120.312V119.875H289.969V117.094H311.406V119.875H302.5V120.312C302.5 124.453 306.719 128.219 312.594 129.125L311.219 131.875C306.453 131.016 302.547 128.469 300.703 124.938C298.891 128.516 295.016 131.141 290.312 132.031L288.938 129.219ZM325.469 119.031C325.469 122.578 327.766 125.938 332.125 127.312L330.25 130.031C327.203 129 325.016 126.938 323.781 124.312C322.562 127.312 320.281 129.672 317.031 130.812L315.156 128.094C319.703 126.516 321.984 122.75 322 118.719V116.031H325.469V119.031ZM319 137.375C319 134.031 322.672 132.047 328.562 132.062C334.406 132.047 338.016 134.031 338.031 137.375C338.016 140.797 334.406 142.75 328.562 142.75C322.672 142.75 319 140.797 319 137.375ZM322.469 137.375C322.469 139.125 324.688 140 328.562 140C332.422 140 334.594 139.125 334.594 137.375C334.594 135.719 332.422 134.781 328.562 134.781C324.688 134.781 322.469 135.719 322.469 137.375ZM334.281 131.438V114.531H337.75V121.406H341.688V124.281H337.75V131.438H334.281ZM366.781 114.531V130.938H363.312V124.094H358.438V121.25H363.312V114.531H366.781ZM343.062 128.125C347.562 126.641 349.969 122.891 349.969 119.156V118.938H344.094V116.125H359.344V118.938H353.5V119.188C353.5 122.578 355.781 126.078 360.156 127.562L358.406 130.312C355.25 129.234 353.016 127.078 351.781 124.406C350.531 127.375 348.188 129.734 344.844 130.844L343.062 128.125ZM348 142.438V132.156H366.781V142.438H348ZM351.469 139.625H363.375V134.906H351.469V139.625ZM376.281 137.781L373.656 146.531H370.688L372.312 137.781H376.281ZM394.969 116.281C399.312 116.281 402.625 119.078 402.656 123.094C402.625 126.547 400.188 129.094 396.75 129.734V133.906C399.109 133.781 401.453 133.609 403.656 133.312L403.906 135.906C397.984 136.969 391.531 137 386.688 136.938L386.188 134.094C388.312 134.094 390.75 134.078 393.281 134.016V129.766C389.734 129.141 387.281 126.578 387.312 123.094C387.281 119.078 390.531 116.281 394.969 116.281ZM390.688 123.094C390.672 125.453 392.5 126.969 394.969 126.938C397.391 126.969 399.203 125.453 399.219 123.094C399.203 120.719 397.391 119.25 394.969 119.219C392.5 119.25 390.672 120.719 390.688 123.094ZM405.281 142.781V114.531H408.75V125.812H412.844V128.75H408.75V142.781H405.281ZM439.969 130.438V133.312H428.719V142.781H425.281V133.312H414.156V130.438H439.969ZM416.875 121.875C416.859 118 420.984 115.547 427 115.531C433.016 115.547 437.172 118 437.188 121.875C437.172 125.703 433.016 128.141 427 128.125C420.984 128.141 416.859 125.703 416.875 121.875ZM420.438 121.875C420.422 124.078 423.016 125.375 427 125.375C431 125.375 433.594 124.078 433.594 121.875C433.594 119.656 431 118.344 427 118.344C423.016 118.344 420.422 119.656 420.438 121.875ZM451.844 119.031C451.844 122.578 454.141 125.938 458.5 127.312L456.625 130.031C453.578 129 451.391 126.938 450.156 124.312C448.938 127.312 446.656 129.672 443.406 130.812L441.531 128.094C446.078 126.516 448.359 122.75 448.375 118.719V116.031H451.844V119.031ZM445.375 137.375C445.375 134.031 449.047 132.047 454.938 132.062C460.781 132.047 464.391 134.031 464.406 137.375C464.391 140.797 460.781 142.75 454.938 142.75C449.047 142.75 445.375 140.797 445.375 137.375ZM448.844 137.375C448.844 139.125 451.062 140 454.938 140C458.797 140 460.969 139.125 460.969 137.375C460.969 135.719 458.797 134.781 454.938 134.781C451.062 134.781 448.844 135.719 448.844 137.375ZM460.656 131.438V114.531H464.125V121.406H468.062V124.281H464.125V131.438H460.656ZM493.156 114.531V130.938H489.688V124.094H484.812V121.25H489.688V114.531H493.156ZM469.438 128.125C473.938 126.641 476.344 122.891 476.344 119.156V118.938H470.469V116.125H485.719V118.938H479.875V119.188C479.875 122.578 482.156 126.078 486.531 127.562L484.781 130.312C481.625 129.234 479.391 127.078 478.156 124.406C476.906 127.375 474.562 129.734 471.219 130.844L469.438 128.125ZM474.375 142.438V132.156H493.156V142.438H474.375ZM477.844 139.625H489.75V134.906H477.844V139.625ZM520.688 114.531V129.688H517.188V114.531H520.688ZM497.656 122.406C497.656 118.484 500.906 115.766 505.281 115.781C509.641 115.766 512.891 118.484 512.875 122.406C512.891 126.266 509.641 128.984 505.281 128.969C500.906 128.984 497.656 126.266 497.656 122.406ZM501.062 122.406C501.047 124.672 502.812 126.109 505.281 126.125C507.703 126.109 509.469 124.672 509.469 122.406C509.469 120.141 507.703 118.672 505.281 118.688C502.812 118.672 501.047 120.141 501.062 122.406ZM502 142.438V131H505.438V133.906H517.219V131H520.688V142.438H502ZM505.438 139.625H517.219V136.625H505.438V139.625ZM548.375 114.531V142.781H544.938V114.531H548.375ZM526.438 135.688V117.281H529.875V132.719C533.828 132.656 538.047 132.312 542.406 131.438L542.844 134.344C537.875 135.375 533.266 135.703 528.875 135.688H526.438ZM574.594 114.531V125.25H578.938V128.094H574.594V142.812H571.125V114.531H574.594ZM553.625 135.906V117.219H566.844V120.031H557.094V133C561.484 132.984 564.969 132.766 568.844 132.094L569.25 135.031C564.859 135.781 561.062 135.906 555.969 135.906H553.625Z" fill="#646464"/>
<path d="M152.297 163.008C152.309 165.949 156.129 168.48 159.891 169.008L159.141 170.508C155.906 169.969 152.695 168.176 151.359 165.621C150.023 168.199 146.824 169.969 143.578 170.508L142.828 169.008C146.59 168.48 150.398 165.996 150.398 163.008V161.812H152.297V163.008ZM141.844 174.352V172.805H160.828V174.352H152.203V181.898H150.398V174.352H141.844ZM181.664 177.68V179.227H162.586V177.68H167.32V172.066C165.539 171.141 164.461 169.641 164.461 167.742C164.461 164.52 167.625 162.398 172.078 162.375C176.531 162.398 179.695 164.52 179.695 167.742C179.695 169.605 178.652 171.082 176.93 172.008V177.68H181.664ZM166.242 167.742C166.23 170.074 168.656 171.633 172.078 171.633C175.465 171.633 177.914 170.074 177.914 167.742C177.914 165.41 175.465 163.875 172.078 163.898C168.656 163.875 166.23 165.41 166.242 167.742ZM169.125 177.68H175.078V172.723C174.176 172.957 173.168 173.086 172.078 173.086C171.012 173.086 170.016 172.969 169.125 172.734V177.68ZM202.406 177.68V179.227H183.328V177.68H191.93V172.617H193.781V177.68H202.406ZM184.266 171.867C187.793 171.27 191.883 168.352 191.883 165.023V164.508H184.898V162.961H200.766V164.508H193.781V165.023C193.793 168.352 197.895 171.211 201.492 171.797L200.742 173.25C197.555 172.617 194.191 170.59 192.855 167.707C191.52 170.625 188.168 172.699 185.039 173.344L184.266 171.867ZM211.055 166.664C211.055 170.332 213.48 174.117 216.445 175.57L215.32 177.047C213.023 175.852 211.102 173.379 210.176 170.484C209.25 173.555 207.281 176.191 204.938 177.445L203.766 175.969C206.812 174.469 209.227 170.473 209.25 166.664V162.867H211.055V166.664ZM218.367 181.898V161.062H220.195V169.523H223.688V171.117H220.195V181.898H218.367ZM243.797 170.812V172.336H235.195V174.562C239.121 174.738 241.453 176.016 241.477 178.219C241.453 180.551 238.77 181.852 234.305 181.852C229.781 181.852 227.098 180.551 227.109 178.219C227.098 176.016 229.418 174.738 233.391 174.562V172.336H224.812V170.812H243.797ZM225.891 168.094C229.5 167.719 232.98 165.879 233.109 163.547H226.547V162.047H242.109V163.547H235.5C235.629 165.879 239.074 167.719 242.742 168.094L242.062 169.547C238.652 169.137 235.453 167.602 234.305 165.293C233.156 167.602 229.98 169.137 226.547 169.547L225.891 168.094ZM228.984 178.219C228.961 179.602 230.965 180.434 234.305 180.422C237.609 180.434 239.613 179.602 239.625 178.219C239.613 176.801 237.609 175.992 234.305 175.969C230.965 175.992 228.961 176.801 228.984 178.219ZM262.758 161.086V176.32H260.93V161.086H262.758ZM246.047 167.648C246.035 164.648 248.391 162.551 251.508 162.539C254.625 162.551 256.957 164.648 256.969 167.648C256.957 170.684 254.625 172.793 251.508 172.781C248.391 172.793 246.035 170.684 246.047 167.648ZM247.852 167.648C247.828 169.723 249.398 171.164 251.508 171.164C253.582 171.164 255.164 169.723 255.164 167.648C255.164 165.609 253.582 164.156 251.508 164.156C249.398 164.156 247.828 165.609 247.852 167.648ZM249.305 181.453V174.773H251.133V179.906H263.414V181.453H249.305ZM288.891 161.953V163.336C288.879 164.824 288.879 166.746 288.363 169.312H291.398V170.836H282.68V174.094H280.875V170.836H272.32V169.312H286.547C287.062 166.758 287.074 164.93 287.062 163.453H274.734V161.953H288.891ZM273.773 180.398C277.477 179.93 280.84 178.078 280.852 175.688V174.961H282.703V175.688C282.715 178.148 286.043 179.93 289.805 180.398L289.172 181.805C285.926 181.383 283.008 180.059 281.777 177.961C280.523 180.023 277.629 181.383 274.43 181.805L273.773 180.398ZM312.141 177.586V179.133H293.062V177.586H312.141ZM294 172.477C297.527 171.879 301.617 168.973 301.617 165.656V164.695H294.633V163.172H310.5V164.695H303.516V165.656C303.527 168.973 307.629 171.809 311.227 172.406L310.477 173.859C307.289 173.25 303.926 171.211 302.59 168.328C301.254 171.223 297.902 173.309 294.773 173.953L294 172.477ZM332.859 170.742V172.195H313.781V170.742H332.859ZM316.078 175.242V173.859H330.469V178.289H317.953V180.281H331.148V181.617H316.102V177.023H328.641V175.242H316.078ZM316.195 163.031V161.695H330.398V166.008H318.094V167.836H330.773V169.172H316.266V164.742H328.547V163.031H316.195ZM356.836 161.086V167.391H359.953V168.938H356.836V175.055H354.984V161.086H356.836ZM340.477 172.922C342.141 172.922 344.086 172.922 346.125 172.863V171.328C343.699 171.105 342.129 169.992 342.141 168.258C342.129 166.359 344.086 165.188 347.016 165.188C349.969 165.188 351.891 166.359 351.914 168.258C351.891 169.98 350.367 171.094 347.953 171.328V172.793C349.898 172.699 351.867 172.535 353.695 172.266L353.859 173.602C349.336 174.398 344.355 174.434 340.688 174.422L340.477 172.922ZM340.992 164.391V162.984H346.125V160.898H347.953V162.984H353.062V164.391H340.992ZM343.031 177.562V176.086H356.836V181.898H354.984V177.562H343.031ZM343.898 168.258C343.887 169.348 345.094 170.086 347.016 170.062C348.938 170.086 350.156 169.348 350.156 168.258C350.156 167.156 348.938 166.477 347.016 166.5C345.094 166.477 343.887 167.156 343.898 168.258ZM378.516 161.086V176.32H376.688V161.086H378.516ZM361.805 167.648C361.793 164.648 364.148 162.551 367.266 162.539C370.383 162.551 372.715 164.648 372.727 167.648C372.715 170.684 370.383 172.793 367.266 172.781C364.148 172.793 361.793 170.684 361.805 167.648ZM363.609 167.648C363.586 169.723 365.156 171.164 367.266 171.164C369.34 171.164 370.922 169.723 370.922 167.648C370.922 165.609 369.34 164.156 367.266 164.156C365.156 164.156 363.586 165.609 363.609 167.648ZM365.062 181.453V174.773H366.891V179.906H379.172V181.453H365.062ZM392.461 164.672V166.172H382.008V164.672H386.344V161.695H388.172V164.672H392.461ZM382.758 172.312C382.758 169.547 384.645 167.59 387.234 167.578C389.859 167.59 391.734 169.547 391.758 172.312C391.734 175.113 389.859 177.082 387.234 177.094C384.645 177.082 382.758 175.113 382.758 172.312ZM384.398 172.312C384.398 174.164 385.582 175.488 387.234 175.477C388.898 175.488 390.117 174.164 390.117 172.312C390.117 170.484 388.898 169.148 387.234 169.125C385.582 169.148 384.398 170.484 384.398 172.312ZM393.539 180.867V161.578H395.273V169.852H398.039V161.062H399.797V181.898H398.039V171.375H395.273V180.867H393.539ZM421.875 177.703V179.227H402.797V177.703H411.375V173.203H405.047V162.539H406.898V166.312H417.727V162.539H419.531V173.203H413.18V177.703H421.875ZM406.898 171.703H417.727V167.812H406.898V171.703ZM429.727 166.992C429.727 170.309 431.344 173.883 434.109 175.523L433.055 176.953C431.039 175.734 429.598 173.508 428.871 170.965C428.109 173.742 426.562 176.133 424.477 177.398L423.305 176.016C426.188 174.328 427.945 170.637 427.945 167.062V163.031H429.727V166.992ZM431.812 170.109V168.539H435.352V161.508H437.086V180.844H435.352V170.109H431.812ZM439.617 181.898V161.062H441.398V181.898H439.617ZM463.359 177.68V179.227H444.281V177.68H449.016V172.066C447.234 171.141 446.156 169.641 446.156 167.742C446.156 164.52 449.32 162.398 453.773 162.375C458.227 162.398 461.391 164.52 461.391 167.742C461.391 169.605 460.348 171.082 458.625 172.008V177.68H463.359ZM447.938 167.742C447.926 170.074 450.352 171.633 453.773 171.633C457.16 171.633 459.609 170.074 459.609 167.742C459.609 165.41 457.16 163.875 453.773 163.898C450.352 163.875 447.926 165.41 447.938 167.742ZM450.82 177.68H456.773V172.723C455.871 172.957 454.863 173.086 453.773 173.086C452.707 173.086 451.711 172.969 450.82 172.734V177.68ZM468.398 163.031L468.234 175.219H466.266L466.102 163.031H468.398ZM465.75 178.617C465.727 177.797 466.43 177.117 467.25 177.117C468.082 177.117 468.762 177.797 468.75 178.617C468.762 179.449 468.082 180.129 467.25 180.141C466.43 180.129 465.727 179.449 465.75 178.617Z" fill="#A0A0A0"/>
</g>
<defs>
<clipPath id="clip0_32_2">
<rect width="1440" height="280" fill="white"/>
</clipPath>
</defs>
</svg>
